<svg
            viewBox="0 0 318 318"
            fill="none"
            xmlns="http://www.w3.org/2000/svg"
        >
            <path
                d="M184.734 315.151C176.109 316.568 167.432 317.276 158.619 317.276C149.812 317.276 141.135 316.563 132.51 315.151V184.516H84.2656V132.531H184.734V315.151Z"
                fill="#ef8b59"
            />
            <path
                d="M158.635 0C180.036 0 200.823 4.19244 220.396 12.4736C239.291 20.4632 256.255 31.8906 270.812 46.4531C285.375 61.0104 296.807 77.9688 304.802 96.8594C306.427 100.703 307.896 104.552 309.208 108.511H252.646C234.698 74.9482 199.317 52.083 158.666 52.083C99.9215 52.0832 52.1564 99.8958 52.1562 158.63C52.151 200.447 76.3381 236.703 111.541 254.141V310.141C106.411 308.604 101.713 306.823 96.9219 304.802C78.026 296.812 61.0205 285.375 46.458 270.817C31.8956 256.255 20.4632 239.291 12.4736 220.396C4.19251 200.823 4.18892e-05 180.042 0 158.636C0 137.235 4.19238 116.453 12.4736 96.8799C20.4632 77.9841 31.8956 61.0204 46.458 46.458C61.0205 31.9008 77.9841 20.4632 96.8799 12.4736C116.453 4.20286 137.229 5.38842e-05 158.635 0Z"
                fill="currentColor"
            />
            <path
                d="M315.15 132.542C316.557 140.922 317.266 149.808 317.266 158.615C317.266 180.016 313.062 200.824 304.786 220.396C296.791 239.292 285.343 256.256 270.786 270.818C256.224 285.376 239.239 296.813 220.344 304.803C215.557 306.829 210.854 308.604 205.724 310.141V254.141C233.463 240.458 254.255 215.058 261.938 184.521H205.724V132.542H315.15Z"
                fill="currentColor"
            />
        </svg>